<?xml version="1.0" encoding="UTF-8" standalone="yes"?>
<svg xmlns="http://www.w3.org/2000/svg" xmlns:xlink="http://www.w3.org/1999/xlink" width="3899.381pt" height="922.803pt" version="1.1" viewBox="-533.209 126.536 3899.381 922.803">
  <!--
	Exported with Concepts: Smarter Sketching
	Version: 1059 on iOS 15.5
	https://concepts.app/
	-->
  <title>未命名</title>
  <desc>Drawing exported from Concepts: Smarter Sketching</desc>
  <defs></defs>
  <g id="线条" opacity="1.000">
    <path id="STROKE_053ad28f-bf4a-4cd2-9333-0f5e440e530b" opacity="1.000" fill="none" stroke="#000000" stroke-width="6.000" stroke-opacity="1.000" stroke-linecap="round" stroke-linejoin="round" d="M -257.924 354.751 L 257.608 179.672 L 763.217 356.760 L 261.039 525.284 Z"></path>
    <path id="STROKE_97367029-05ce-4a7c-bb14-7daa449a6969" opacity="1.000" fill="none" stroke="#000000" stroke-width="6.000" stroke-opacity="1.000" stroke-linecap="round" stroke-linejoin="round" d="M -257.924 354.751 L -263.699 780.964 L 257.211 959.285 L 772.709 776.410 L 763.217 356.760 "></path>
    <path id="STROKE_5e9842db-2e87-435a-8d3b-f67246750e49" opacity="1.000" fill="none" stroke="#000000" stroke-width="6.000" stroke-opacity="1.000" stroke-linecap="round" stroke-linejoin="round" d="M 261.039 525.284 L 257.207 957.985 "></path>
    <path id="STROKE_aca0e6ba-182d-4337-9b7d-89859b9df9c3" opacity="1.000" fill="none" stroke="#d75341" stroke-width="6.000" stroke-opacity="1.000" stroke-linecap="round" stroke-linejoin="round" d="M 809.048 778.794 Q 809.053 779.214 809.048 779.633 Q 809.043 780.053 809.029 780.473 Q 809.015 780.892 808.991 781.311 Q 808.967 781.730 808.934 782.148 Q 808.901 782.567 808.858 782.984 Q 808.816 783.402 808.764 783.818 Q 808.712 784.235 808.650 784.650 Q 808.589 785.065 808.518 785.479 Q 808.447 785.892 808.367 786.304 Q 808.287 786.716 808.198 787.126 Q 808.108 787.536 808.010 787.944 Q 807.911 788.352 807.803 788.758 Q 807.695 789.164 807.578 789.567 Q 807.461 789.970 807.335 790.370 Q 807.209 790.770 807.074 791.168 Q 806.939 791.565 806.795 791.959 Q 806.651 792.353 806.498 792.744 Q 806.345 793.135 806.183 793.522 Q 806.021 793.910 805.851 794.293 Q 805.681 794.677 805.502 795.056 Q 805.323 795.436 805.135 795.811 Q 804.947 796.187 804.751 796.558 Q 804.555 796.929 804.351 797.296 Q 804.147 797.662 803.934 798.024 Q 803.722 798.386 803.501 798.743 Q 803.280 799.100 803.051 799.452 Q 802.823 799.804 802.586 800.150 Q 802.349 800.497 802.105 800.838 Q 801.861 801.179 801.609 801.515 Q 801.357 801.851 801.097 802.180 Q 800.838 802.510 800.571 802.834 Q 800.304 803.158 800.030 803.476 Q 799.755 803.793 799.474 804.105 Q 799.193 804.416 798.904 804.721 Q 798.616 805.026 798.321 805.325 Q 798.026 805.623 797.724 805.915 Q 797.422 806.207 797.114 806.492 Q 796.806 806.776 796.491 807.054 Q 796.177 807.332 795.856 807.602 Q 795.535 807.873 795.208 808.136 Q 794.881 808.400 794.549 808.655 Q 794.216 808.911 793.877 809.159 Q 793.539 809.408 793.195 809.648 Q 792.851 809.889 792.502 810.121 Q 792.153 810.354 791.798 810.579 Q 791.444 810.803 791.084 811.020 Q 790.725 811.237 790.360 811.445 Q 789.996 811.654 789.627 811.854 Q 789.258 812.054 788.885 812.246 Q 788.512 812.438 788.134 812.621 Q 787.757 812.804 787.375 812.979 Q 786.994 813.154 786.608 813.320 Q 786.223 813.486 785.834 813.643 Q 785.445 813.801 785.052 813.949 Q 784.659 814.098 784.264 814.237 Q 783.868 814.377 783.469 814.507 Q 783.070 814.638 782.668 814.759 Q 782.267 814.881 781.862 814.993 Q 781.458 815.106 781.051 815.209 Q 780.644 815.312 780.235 815.406 Q 779.826 815.500 779.415 815.585 Q 779.004 815.670 778.591 815.746 Q 778.179 815.821 777.764 815.887 Q 777.350 815.953 776.934 816.010 Q 776.518 816.067 776.101 816.114 Q 775.684 816.161 775.266 816.199 Q 774.848 816.237 774.429 816.266 Q 774.011 816.294 773.591 816.313 Q 773.172 816.332 772.752 816.341 Q 772.333 816.351 771.913 816.351 Q 771.493 816.351 771.074 816.341 Q 770.654 816.332 770.235 816.313 Q 769.816 816.294 769.397 816.266 Q 768.978 816.237 768.560 816.199 Q 768.142 816.161 767.725 816.114 Q 767.308 816.067 766.892 816.010 Q 766.477 815.953 766.062 815.887 Q 765.648 815.821 765.235 815.746 Q 764.822 815.670 764.411 815.585 Q 764.000 815.500 763.591 815.406 Q 763.182 815.312 762.775 815.209 Q 762.368 815.106 761.964 814.993 Q 761.560 814.881 761.158 814.759 Q 760.756 814.638 760.357 814.507 Q 759.958 814.377 759.563 814.237 Q 759.167 814.098 758.774 813.949 Q 758.382 813.801 757.993 813.643 Q 757.604 813.486 757.218 813.320 Q 756.833 813.154 756.451 812.979 Q 756.070 812.804 755.692 812.621 Q 755.314 812.438 754.941 812.246 Q 754.568 812.054 754.199 811.854 Q 753.830 811.654 753.466 811.445 Q 753.102 811.237 752.742 811.020 Q 752.383 810.803 752.028 810.579 Q 751.674 810.354 751.324 810.121 Q 750.975 809.889 750.631 809.648 Q 750.287 809.408 749.949 809.159 Q 749.610 808.911 749.278 808.655 Q 748.945 808.400 748.618 808.136 Q 748.291 807.873 747.970 807.602 Q 747.650 807.332 747.335 807.054 Q 747.020 806.776 746.712 806.492 Q 746.404 806.207 746.102 805.915 Q 745.800 805.623 745.505 805.325 Q 745.210 805.026 744.922 804.721 Q 744.634 804.416 744.352 804.105 Q 744.071 803.794 743.797 803.476 Q 743.523 803.158 743.256 802.834 Q 742.989 802.510 742.729 802.180 Q 742.470 801.851 742.218 801.515 Q 741.966 801.179 741.721 800.838 Q 741.477 800.497 741.240 800.150 Q 741.004 799.804 740.775 799.452 Q 740.546 799.100 740.325 798.743 Q 740.105 798.386 739.892 798.024 Q 739.680 797.662 739.475 797.296 Q 739.271 796.929 739.075 796.558 Q 738.879 796.187 738.691 795.811 Q 738.504 795.436 738.325 795.056 Q 738.146 794.677 737.975 794.293 Q 737.805 793.910 737.643 793.522 Q 737.481 793.135 737.328 792.744 Q 737.176 792.353 737.031 791.959 Q 736.887 791.565 736.752 791.168 Q 736.617 790.770 736.491 790.370 Q 736.365 789.970 736.248 789.567 Q 736.131 789.164 736.023 788.758 Q 735.915 788.352 735.817 787.944 Q 735.718 787.537 735.629 787.126 Q 735.539 786.716 735.459 786.304 Q 735.379 785.893 735.308 785.479 Q 735.237 785.065 735.176 784.650 Q 735.115 784.235 735.062 783.818 Q 735.010 783.402 734.968 782.984 Q 734.925 782.567 734.892 782.148 Q 734.859 781.730 734.835 781.311 Q 734.811 780.892 734.797 780.473 Q 734.783 780.053 734.778 779.633 Q 734.773 779.214 734.778 778.794 Q 734.783 778.374 734.797 777.955 Q 734.811 777.536 734.835 777.116 Q 734.859 776.697 734.892 776.279 Q 734.925 775.861 734.968 775.443 Q 735.010 775.026 735.062 774.609 Q 735.115 774.193 735.176 773.778 Q 735.237 773.362 735.308 772.949 Q 735.379 772.535 735.459 772.123 Q 735.539 771.711 735.629 771.301 Q 735.718 770.891 735.817 770.483 Q 735.915 770.075 736.023 769.669 Q 736.131 769.264 736.248 768.861 Q 736.365 768.458 736.491 768.057 Q 736.617 767.657 736.752 767.260 Q 736.887 766.862 737.031 766.468 Q 737.176 766.074 737.328 765.683 Q 737.481 765.292 737.643 764.905 Q 737.805 764.518 737.975 764.134 Q 738.146 763.751 738.325 763.371 Q 738.504 762.992 738.691 762.616 Q 738.879 762.241 739.075 761.870 Q 739.271 761.498 739.475 761.132 Q 739.680 760.765 739.892 760.403 Q 740.105 760.042 740.325 759.685 Q 740.546 759.328 740.775 758.976 Q 741.004 758.624 741.240 758.277 Q 741.477 757.930 741.721 757.589 Q 741.965 757.248 742.218 756.912 Q 742.470 756.577 742.729 756.247 Q 742.989 755.917 743.256 755.593 Q 743.523 755.269 743.797 754.952 Q 744.071 754.634 744.352 754.323 Q 744.633 754.011 744.922 753.706 Q 745.210 753.401 745.505 753.103 Q 745.800 752.804 746.102 752.512 Q 746.404 752.221 746.712 751.936 Q 747.020 751.651 747.335 751.373 Q 747.650 751.096 747.970 750.825 Q 748.291 750.554 748.618 750.291 Q 748.945 750.028 749.278 749.772 Q 749.610 749.516 749.949 749.268 Q 750.287 749.020 750.631 748.779 Q 750.975 748.539 751.324 748.306 Q 751.674 748.073 752.028 747.849 Q 752.383 747.624 752.742 747.407 Q 753.102 747.191 753.466 746.982 Q 753.830 746.774 754.199 746.573 Q 754.568 746.373 754.941 746.182 Q 755.314 745.990 755.692 745.806 Q 756.070 745.623 756.451 745.448 Q 756.833 745.274 757.218 745.108 Q 757.604 744.941 757.993 744.784 Q 758.382 744.627 758.774 744.478 Q 759.167 744.330 759.563 744.190 Q 759.958 744.051 760.357 743.920 Q 760.756 743.789 761.158 743.668 Q 761.560 743.546 761.964 743.434 Q 762.368 743.322 762.775 743.218 Q 763.182 743.115 763.591 743.021 Q 764.000 742.927 764.411 742.842 Q 764.822 742.757 765.235 742.682 Q 765.648 742.606 766.062 742.540 Q 766.477 742.474 766.893 742.417 Q 767.308 742.361 767.725 742.313 Q 768.142 742.266 768.560 742.228 Q 768.978 742.190 769.397 742.162 Q 769.816 742.133 770.235 742.114 Q 770.654 742.095 771.074 742.086 Q 771.494 742.076 771.913 742.076 Q 772.333 742.076 772.753 742.086 Q 773.172 742.095 773.591 742.114 Q 774.011 742.133 774.429 742.162 Q 774.848 742.190 775.266 742.228 Q 775.684 742.266 776.101 742.313 Q 776.518 742.361 776.934 742.417 Q 777.350 742.474 777.764 742.540 Q 778.179 742.606 778.592 742.682 Q 779.005 742.757 779.416 742.842 Q 779.827 742.927 780.236 743.021 Q 780.645 743.115 781.051 743.218 Q 781.458 743.322 781.863 743.434 Q 782.267 743.547 782.669 743.668 Q 783.070 743.790 783.469 743.920 Q 783.868 744.051 784.264 744.190 Q 784.660 744.330 785.052 744.478 Q 785.445 744.627 785.834 744.784 Q 786.223 744.942 786.608 745.108 Q 786.994 745.274 787.375 745.448 Q 787.757 745.623 788.135 745.807 Q 788.512 745.990 788.885 746.182 Q 789.259 746.374 789.628 746.574 Q 789.997 746.774 790.361 746.982 Q 790.725 747.191 791.085 747.408 Q 791.444 747.624 791.798 747.849 Q 792.153 748.074 792.502 748.306 Q 792.851 748.539 793.195 748.780 Q 793.539 749.020 793.878 749.268 Q 794.216 749.517 794.549 749.772 Q 794.882 750.028 795.208 750.291 Q 795.535 750.555 795.856 750.825 Q 796.177 751.096 796.492 751.374 Q 796.806 751.651 797.115 751.936 Q 797.423 752.221 797.725 752.513 Q 798.026 752.804 798.321 753.103 Q 798.617 753.401 798.905 753.706 Q 799.193 754.011 799.474 754.323 Q 799.756 754.634 800.030 754.952 Q 800.304 755.270 800.571 755.594 Q 800.838 755.918 801.097 756.247 Q 801.357 756.577 801.609 756.913 Q 801.861 757.248 802.105 757.590 Q 802.350 757.931 802.586 758.277 Q 802.823 758.624 803.052 758.976 Q 803.280 759.328 803.501 759.685 Q 803.722 760.042 803.934 760.404 Q 804.147 760.766 804.351 761.132 Q 804.556 761.499 804.752 761.870 Q 804.948 762.241 805.135 762.617 Q 805.323 762.992 805.502 763.372 Q 805.681 763.751 805.851 764.135 Q 806.022 764.518 806.183 764.906 Q 806.345 765.293 806.498 765.684 Q 806.651 766.075 806.795 766.469 Q 806.939 766.863 807.074 767.260 Q 807.209 767.658 807.335 768.058 Q 807.461 768.458 807.578 768.861 Q 807.695 769.265 807.803 769.670 Q 807.911 770.076 808.010 770.484 Q 808.108 770.892 808.198 771.302 Q 808.287 771.712 808.367 772.124 Q 808.447 772.536 808.518 772.949 Q 808.589 773.363 808.650 773.778 Q 808.712 774.193 808.764 774.610 Q 808.816 775.026 808.859 775.444 Q 808.901 775.861 808.934 776.280 Q 808.967 776.698 808.991 777.117 Q 809.015 777.536 809.029 777.956 Q 809.043 778.375 809.048 778.794 Z"></path>
    <path id="STROKE_5dc33a63-eece-4424-8944-193c5061b464" opacity="1.000" fill="none" stroke="#d75341" stroke-width="6.000" stroke-opacity="1.000" stroke-linecap="round" stroke-linejoin="round" d="M -218.108 354.833 Q -218.103 355.252 -218.108 355.672 Q -218.113 356.092 -218.127 356.511 Q -218.141 356.931 -218.165 357.350 Q -218.189 357.769 -218.222 358.187 Q -218.255 358.605 -218.298 359.023 Q -218.340 359.440 -218.392 359.857 Q -218.444 360.273 -218.506 360.689 Q -218.567 361.104 -218.638 361.517 Q -218.709 361.931 -218.789 362.343 Q -218.869 362.755 -218.958 363.165 Q -219.048 363.575 -219.147 363.983 Q -219.245 364.391 -219.353 364.797 Q -219.461 365.202 -219.578 365.605 Q -219.695 366.008 -219.821 366.409 Q -219.947 366.809 -220.082 367.206 Q -220.217 367.604 -220.361 367.998 Q -220.505 368.392 -220.658 368.783 Q -220.811 369.174 -220.973 369.561 Q -221.135 369.948 -221.305 370.332 Q -221.475 370.715 -221.654 371.095 Q -221.833 371.475 -222.021 371.850 Q -222.209 372.226 -222.405 372.597 Q -222.601 372.968 -222.805 373.334 Q -223.009 373.701 -223.222 374.063 Q -223.434 374.425 -223.655 374.782 Q -223.876 375.139 -224.105 375.491 Q -224.333 375.842 -224.570 376.189 Q -224.807 376.536 -225.051 376.877 Q -225.295 377.218 -225.547 377.554 Q -225.799 377.889 -226.059 378.219 Q -226.318 378.549 -226.585 378.873 Q -226.852 379.197 -227.127 379.514 Q -227.401 379.832 -227.682 380.144 Q -227.963 380.455 -228.252 380.760 Q -228.540 381.065 -228.835 381.364 Q -229.130 381.662 -229.432 381.954 Q -229.734 382.245 -230.042 382.530 Q -230.350 382.815 -230.665 383.093 Q -230.979 383.371 -231.300 383.641 Q -231.621 383.912 -231.948 384.175 Q -232.275 384.438 -232.607 384.694 Q -232.940 384.950 -233.279 385.198 Q -233.617 385.446 -233.961 385.687 Q -234.305 385.927 -234.654 386.160 Q -235.003 386.393 -235.358 386.617 Q -235.712 386.842 -236.072 387.059 Q -236.431 387.275 -236.796 387.484 Q -237.160 387.692 -237.529 387.893 Q -237.898 388.093 -238.271 388.285 Q -238.644 388.476 -239.022 388.660 Q -239.399 388.843 -239.781 389.018 Q -240.162 389.193 -240.548 389.359 Q -240.933 389.525 -241.322 389.682 Q -241.711 389.839 -242.104 389.988 Q -242.497 390.136 -242.892 390.276 Q -243.288 390.415 -243.687 390.546 Q -244.086 390.677 -244.488 390.798 Q -244.889 390.920 -245.294 391.032 Q -245.698 391.145 -246.105 391.248 Q -246.512 391.351 -246.921 391.445 Q -247.330 391.539 -247.741 391.624 Q -248.152 391.709 -248.565 391.784 Q -248.977 391.860 -249.392 391.926 Q -249.806 391.992 -250.222 392.049 Q -250.638 392.105 -251.055 392.153 Q -251.472 392.200 -251.890 392.238 Q -252.308 392.276 -252.727 392.304 Q -253.145 392.333 -253.565 392.352 Q -253.984 392.371 -254.404 392.380 Q -254.823 392.390 -255.243 392.390 Q -255.663 392.390 -256.082 392.380 Q -256.502 392.371 -256.921 392.352 Q -257.340 392.333 -257.759 392.304 Q -258.178 392.276 -258.596 392.238 Q -259.014 392.200 -259.431 392.153 Q -259.848 392.105 -260.264 392.049 Q -260.679 391.992 -261.094 391.926 Q -261.508 391.860 -261.921 391.784 Q -262.334 391.709 -262.745 391.624 Q -263.156 391.539 -263.565 391.445 Q -263.974 391.351 -264.381 391.248 Q -264.788 391.145 -265.192 391.032 Q -265.596 390.920 -265.998 390.798 Q -266.400 390.677 -266.799 390.546 Q -267.198 390.415 -267.593 390.276 Q -267.989 390.136 -268.382 389.988 Q -268.774 389.839 -269.163 389.682 Q -269.552 389.525 -269.938 389.359 Q -270.323 389.193 -270.705 389.018 Q -271.086 388.843 -271.464 388.660 Q -271.842 388.476 -272.215 388.285 Q -272.588 388.093 -272.957 387.893 Q -273.326 387.692 -273.690 387.484 Q -274.054 387.275 -274.414 387.059 Q -274.773 386.842 -275.128 386.617 Q -275.482 386.393 -275.832 386.160 Q -276.181 385.927 -276.525 385.687 Q -276.869 385.446 -277.207 385.198 Q -277.546 384.950 -277.878 384.694 Q -278.211 384.438 -278.538 384.175 Q -278.865 383.912 -279.186 383.641 Q -279.506 383.371 -279.821 383.093 Q -280.136 382.815 -280.444 382.530 Q -280.752 382.245 -281.054 381.954 Q -281.356 381.662 -281.651 381.364 Q -281.946 381.065 -282.234 380.760 Q -282.522 380.455 -282.804 380.144 Q -283.085 379.832 -283.359 379.514 Q -283.633 379.197 -283.900 378.873 Q -284.167 378.549 -284.427 378.219 Q -284.686 377.889 -284.938 377.554 Q -285.190 377.218 -285.435 376.877 Q -285.679 376.536 -285.916 376.189 Q -286.152 375.842 -286.381 375.491 Q -286.610 375.139 -286.831 374.782 Q -287.051 374.425 -287.264 374.063 Q -287.476 373.701 -287.681 373.334 Q -287.885 372.968 -288.081 372.597 Q -288.277 372.226 -288.465 371.850 Q -288.652 371.475 -288.831 371.095 Q -289.010 370.716 -289.181 370.332 Q -289.351 369.948 -289.513 369.561 Q -289.675 369.174 -289.828 368.783 Q -289.980 368.392 -290.125 367.998 Q -290.269 367.604 -290.404 367.206 Q -290.539 366.809 -290.665 366.409 Q -290.791 366.008 -290.908 365.605 Q -291.025 365.202 -291.133 364.797 Q -291.241 364.391 -291.339 363.983 Q -291.438 363.575 -291.527 363.165 Q -291.617 362.755 -291.697 362.343 Q -291.777 361.931 -291.848 361.518 Q -291.919 361.104 -291.980 360.689 Q -292.042 360.273 -292.094 359.857 Q -292.146 359.441 -292.188 359.023 Q -292.231 358.606 -292.264 358.187 Q -292.297 357.769 -292.321 357.350 Q -292.345 356.931 -292.359 356.511 Q -292.373 356.092 -292.378 355.672 Q -292.383 355.252 -292.378 354.833 Q -292.373 354.413 -292.359 353.994 Q -292.345 353.574 -292.321 353.155 Q -292.297 352.736 -292.264 352.318 Q -292.231 351.899 -292.188 351.482 Q -292.146 351.064 -292.094 350.648 Q -292.042 350.231 -291.980 349.816 Q -291.919 349.401 -291.848 348.987 Q -291.777 348.574 -291.697 348.162 Q -291.617 347.750 -291.527 347.340 Q -291.438 346.930 -291.339 346.522 Q -291.241 346.114 -291.133 345.708 Q -291.025 345.303 -290.908 344.900 Q -290.791 344.496 -290.665 344.096 Q -290.539 343.696 -290.404 343.299 Q -290.269 342.901 -290.125 342.507 Q -289.980 342.113 -289.828 341.722 Q -289.675 341.331 -289.513 340.944 Q -289.351 340.556 -289.181 340.173 Q -289.010 339.789 -288.831 339.410 Q -288.652 339.030 -288.465 338.655 Q -288.277 338.279 -288.081 337.908 Q -287.885 337.537 -287.681 337.171 Q -287.477 336.804 -287.264 336.442 Q -287.051 336.080 -286.831 335.723 Q -286.610 335.366 -286.381 335.014 Q -286.152 334.662 -285.916 334.316 Q -285.679 333.969 -285.435 333.628 Q -285.191 333.287 -284.938 332.951 Q -284.686 332.616 -284.427 332.286 Q -284.167 331.956 -283.900 331.632 Q -283.633 331.308 -283.359 330.990 Q -283.085 330.673 -282.804 330.361 Q -282.523 330.050 -282.234 329.745 Q -281.946 329.440 -281.651 329.141 Q -281.356 328.843 -281.054 328.551 Q -280.752 328.259 -280.444 327.975 Q -280.136 327.690 -279.821 327.412 Q -279.506 327.134 -279.186 326.864 Q -278.865 326.593 -278.538 326.330 Q -278.211 326.067 -277.878 325.811 Q -277.546 325.555 -277.207 325.307 Q -276.869 325.059 -276.525 324.818 Q -276.181 324.577 -275.832 324.345 Q -275.482 324.112 -275.128 323.887 Q -274.773 323.663 -274.414 323.446 Q -274.054 323.229 -273.690 323.021 Q -273.326 322.812 -272.957 322.612 Q -272.588 322.412 -272.215 322.220 Q -271.842 322.028 -271.464 321.845 Q -271.086 321.662 -270.705 321.487 Q -270.323 321.312 -269.938 321.146 Q -269.552 320.980 -269.163 320.823 Q -268.774 320.665 -268.382 320.517 Q -267.989 320.369 -267.593 320.229 Q -267.198 320.089 -266.799 319.959 Q -266.400 319.828 -265.998 319.707 Q -265.596 319.585 -265.192 319.473 Q -264.788 319.360 -264.381 319.257 Q -263.974 319.154 -263.565 319.060 Q -263.156 318.966 -262.745 318.881 Q -262.334 318.796 -261.921 318.721 Q -261.508 318.645 -261.094 318.579 Q -260.679 318.513 -260.263 318.456 Q -259.848 318.399 -259.431 318.352 Q -259.014 318.305 -258.596 318.267 Q -258.178 318.229 -257.759 318.201 Q -257.340 318.172 -256.921 318.153 Q -256.502 318.134 -256.082 318.125 Q -255.662 318.115 -255.243 318.115 Q -254.823 318.115 -254.403 318.125 Q -253.984 318.134 -253.565 318.153 Q -253.145 318.172 -252.727 318.201 Q -252.308 318.229 -251.890 318.267 Q -251.472 318.305 -251.055 318.352 Q -250.638 318.399 -250.222 318.456 Q -249.806 318.513 -249.392 318.579 Q -248.977 318.645 -248.564 318.721 Q -248.151 318.796 -247.740 318.881 Q -247.329 318.966 -246.920 319.060 Q -246.511 319.154 -246.105 319.257 Q -245.698 319.360 -245.293 319.473 Q -244.889 319.585 -244.487 319.707 Q -244.086 319.828 -243.687 319.959 Q -243.288 320.090 -242.892 320.229 Q -242.496 320.369 -242.104 320.517 Q -241.711 320.666 -241.322 320.823 Q -240.933 320.980 -240.548 321.146 Q -240.162 321.312 -239.780 321.487 Q -239.399 321.662 -239.021 321.845 Q -238.644 322.029 -238.271 322.220 Q -237.897 322.412 -237.528 322.612 Q -237.159 322.813 -236.795 323.021 Q -236.431 323.230 -236.071 323.446 Q -235.712 323.663 -235.358 323.888 Q -235.003 324.112 -234.654 324.345 Q -234.305 324.578 -233.961 324.818 Q -233.617 325.059 -233.278 325.307 Q -232.940 325.555 -232.607 325.811 Q -232.274 326.067 -231.947 326.330 Q -231.621 326.593 -231.300 326.864 Q -230.979 327.135 -230.664 327.412 Q -230.350 327.690 -230.041 327.975 Q -229.733 328.260 -229.431 328.551 Q -229.130 328.843 -228.835 329.142 Q -228.539 329.440 -228.251 329.745 Q -227.963 330.050 -227.682 330.362 Q -227.400 330.673 -227.126 330.991 Q -226.852 331.309 -226.585 331.632 Q -226.318 331.956 -226.059 332.286 Q -225.799 332.616 -225.547 332.952 Q -225.295 333.287 -225.051 333.628 Q -224.806 333.970 -224.570 334.316 Q -224.333 334.663 -224.104 335.015 Q -223.876 335.367 -223.655 335.724 Q -223.434 336.081 -223.222 336.443 Q -223.009 336.804 -222.805 337.171 Q -222.600 337.538 -222.404 337.909 Q -222.208 338.280 -222.021 338.655 Q -221.833 339.031 -221.654 339.410 Q -221.475 339.790 -221.305 340.173 Q -221.134 340.557 -220.973 340.944 Q -220.811 341.332 -220.658 341.722 Q -220.505 342.113 -220.361 342.508 Q -220.217 342.902 -220.082 343.299 Q -219.947 343.696 -219.821 344.097 Q -219.695 344.497 -219.578 344.900 Q -219.461 345.303 -219.353 345.709 Q -219.245 346.114 -219.146 346.522 Q -219.048 346.930 -218.958 347.340 Q -218.869 347.750 -218.789 348.162 Q -218.709 348.574 -218.638 348.988 Q -218.567 349.402 -218.506 349.817 Q -218.444 350.232 -218.392 350.649 Q -218.340 351.065 -218.297 351.483 Q -218.255 351.900 -218.222 352.318 Q -218.189 352.737 -218.165 353.156 Q -218.141 353.575 -218.127 353.994 Q -218.113 354.414 -218.108 354.833 Z"></path>
    <path id="STROKE_a6730cb0-4838-4f94-aaa9-e76ef1ad05ea" opacity="1.000" fill="none" stroke="#d75341" stroke-width="6.000" stroke-opacity="1.000" stroke-linecap="round" stroke-linejoin="round" d="M 768.481 822.599 L 751.024 950.683 "></path>
    <path id="STROKE_44a5ca00-a899-4707-a3df-15dbb2771e45" opacity="1.000" fill="none" stroke="#d75341" stroke-width="6.000" stroke-opacity="1.000" stroke-linecap="round" stroke-linejoin="round" d="M 736.283 925.047 Q 736.678 925.968 733.115 922.922 Q 733.712 922.842 736.026 930.577 Q 738.339 938.313 740.261 942.789 Q 742.184 947.265 743.543 949.299 Q 744.901 951.332 745.939 952.241 Q 746.976 953.149 748.223 953.397 Q 749.470 953.645 750.881 953.654 Q 752.293 953.663 753.311 953.328 Q 754.329 952.993 754.149 952.939 Q 753.969 952.885 754.727 952.728 Q 755.485 952.571 758.112 949.685 Q 760.739 946.799 762.993 945.043 Q 765.247 943.287 773.589 939.972 Q 781.930 936.656 785.307 934.860 "></path>
    <path id="STROKE_1fb56fe9-1c09-435f-846a-fa73a1a125ea" opacity="1.000" fill="none" stroke="#d75341" stroke-width="6.000" stroke-opacity="1.000" stroke-linecap="round" stroke-linejoin="round" d="M -358.598 240.581 L -296.249 321.607 "></path>
    <path id="STROKE_e0719aef-3c5d-47d4-8623-5954105c0648" opacity="1.000" fill="none" stroke="#d75341" stroke-width="6.000" stroke-opacity="1.000" stroke-linecap="round" stroke-linejoin="round" d="M -370.174 307.047 Q -370.788 309.016 -370.736 308.641 Q -370.972 309.153 -371.341 309.828 Q -372.900 306.538 -362.211 245.203 Q -362.211 245.266 -362.211 245.328 Q -362.167 245.926 -362.878 240.422 Q -362.992 240.084 -361.022 240.939 Q -359.052 241.794 -356.394 242.739 Q -353.736 243.684 -351.546 244.045 Q -349.356 244.406 -333.259 249.857 Q -317.162 255.309 -306.213 260.281 Q -295.263 265.254 -276.378 266.422 Q -277.978 266.185 -279.342 266.076 Q -280.707 265.968 -280.630 266.047 Q -281.422 266.172 -281.964 266.297 "></path>
    <path id="STROKE_817e946c-df0c-414f-b90e-145eafbab47e" opacity="1.000" fill="none" stroke="#000000" stroke-width="6.000" stroke-opacity="1.000" stroke-linecap="round" stroke-linejoin="round" d="M 2174.187 343.325 L 2689.719 168.245 L 3195.325 345.334 L 2693.150 513.858 Z"></path>
    <path id="STROKE_f49aa6c5-7dd1-4a1f-8934-94eb3175f2d3" opacity="1.000" fill="none" stroke="#000000" stroke-width="6.000" stroke-opacity="1.000" stroke-linecap="round" stroke-linejoin="round" d="M 2174.187 343.325 L 2168.410 769.538 L 2689.321 947.858 L 3204.818 764.983 L 3195.325 345.334 "></path>
    <path id="STROKE_d61a9e07-417f-45b7-89f1-3eb10bb70b4d" opacity="1.000" fill="none" stroke="#000000" stroke-width="6.000" stroke-opacity="1.000" stroke-linecap="round" stroke-linejoin="round" d="M 2693.150 513.858 L 2689.315 946.559 "></path>
    <path id="STROKE_8beb7cfc-dcfc-4153-8889-467823f6aa9b" opacity="1.000" fill="none" stroke="#d75341" stroke-width="6.000" stroke-opacity="1.000" stroke-linecap="round" stroke-linejoin="round" d="M 3241.157 767.368 Q 3241.162 767.787 3241.157 768.207 Q 3241.153 768.627 3241.138 769.046 Q 3241.124 769.466 3241.101 769.885 Q 3241.077 770.304 3241.043 770.722 Q 3241.010 771.141 3240.968 771.558 Q 3240.925 771.976 3240.873 772.392 Q 3240.821 772.808 3240.760 773.224 Q 3240.698 773.639 3240.627 774.052 Q 3240.557 774.466 3240.477 774.878 Q 3240.396 775.290 3240.307 775.700 Q 3240.218 776.110 3240.119 776.518 Q 3240.020 776.926 3239.912 777.332 Q 3239.804 777.737 3239.688 778.140 Q 3239.571 778.543 3239.444 778.944 Q 3239.318 779.344 3239.183 779.741 Q 3239.048 780.139 3238.904 780.533 Q 3238.760 780.927 3238.607 781.318 Q 3238.454 781.709 3238.292 782.096 Q 3238.131 782.483 3237.960 782.867 Q 3237.790 783.250 3237.611 783.630 Q 3237.432 784.010 3237.244 784.385 Q 3237.057 784.761 3236.861 785.132 Q 3236.665 785.503 3236.460 785.869 Q 3236.256 786.236 3236.043 786.598 Q 3235.831 786.960 3235.610 787.317 Q 3235.389 787.674 3235.161 788.026 Q 3234.932 788.377 3234.696 788.724 Q 3234.459 789.071 3234.215 789.412 Q 3233.970 789.753 3233.718 790.089 Q 3233.466 790.424 3233.207 790.754 Q 3232.947 791.084 3232.680 791.408 Q 3232.413 791.732 3232.139 792.049 Q 3231.865 792.367 3231.583 792.679 Q 3231.302 792.990 3231.014 793.295 Q 3230.726 793.600 3230.430 793.899 Q 3230.135 794.197 3229.833 794.489 Q 3229.532 794.780 3229.224 795.065 Q 3228.915 795.350 3228.601 795.628 Q 3228.286 795.906 3227.965 796.176 Q 3227.645 796.447 3227.318 796.710 Q 3226.991 796.973 3226.658 797.229 Q 3226.325 797.485 3225.987 797.733 Q 3225.648 797.981 3225.304 798.222 Q 3224.960 798.462 3224.611 798.695 Q 3224.262 798.928 3223.907 799.152 Q 3223.553 799.377 3223.193 799.594 Q 3222.834 799.810 3222.470 800.019 Q 3222.105 800.227 3221.737 800.428 Q 3221.368 800.628 3220.995 800.820 Q 3220.621 801.011 3220.244 801.195 Q 3219.866 801.378 3219.485 801.553 Q 3219.103 801.728 3218.718 801.894 Q 3218.332 802.060 3217.943 802.217 Q 3217.554 802.374 3217.161 802.523 Q 3216.769 802.671 3216.373 802.811 Q 3215.977 802.950 3215.578 803.081 Q 3215.179 803.212 3214.778 803.333 Q 3214.376 803.455 3213.972 803.567 Q 3213.567 803.680 3213.161 803.783 Q 3212.754 803.886 3212.345 803.980 Q 3211.936 804.074 3211.525 804.159 Q 3211.114 804.244 3210.701 804.319 Q 3210.288 804.395 3209.874 804.461 Q 3209.459 804.527 3209.043 804.584 Q 3208.627 804.641 3208.210 804.688 Q 3207.793 804.735 3207.375 804.773 Q 3206.958 804.811 3206.539 804.839 Q 3206.120 804.868 3205.701 804.887 Q 3205.281 804.906 3204.862 804.915 Q 3204.442 804.925 3204.022 804.925 Q 3203.603 804.925 3203.183 804.915 Q 3202.764 804.906 3202.344 804.887 Q 3201.925 804.868 3201.506 804.839 Q 3201.088 804.811 3200.670 804.773 Q 3200.252 804.735 3199.835 804.688 Q 3199.418 804.641 3199.002 804.584 Q 3198.586 804.527 3198.171 804.461 Q 3197.757 804.395 3197.344 804.319 Q 3196.931 804.244 3196.521 804.159 Q 3196.109 804.074 3195.700 803.980 Q 3195.291 803.886 3194.885 803.783 Q 3194.478 803.680 3194.073 803.567 Q 3193.669 803.455 3193.267 803.333 Q 3192.865 803.212 3192.467 803.081 Q 3192.068 802.950 3191.672 802.811 Q 3191.276 802.671 3190.884 802.523 Q 3190.491 802.374 3190.102 802.217 Q 3189.713 802.060 3189.328 801.894 Q 3188.942 801.728 3188.561 801.553 Q 3188.179 801.378 3187.801 801.195 Q 3187.424 801.011 3187.051 800.820 Q 3186.677 800.628 3186.308 800.428 Q 3185.939 800.227 3185.575 800.019 Q 3185.211 799.810 3184.852 799.594 Q 3184.492 799.377 3184.138 799.152 Q 3183.783 798.928 3183.434 798.695 Q 3183.084 798.462 3182.741 798.222 Q 3182.397 797.981 3182.058 797.733 Q 3181.720 797.485 3181.387 797.229 Q 3181.054 796.973 3180.728 796.710 Q 3180.401 796.447 3180.080 796.176 Q 3179.759 795.906 3179.444 795.628 Q 3179.130 795.350 3178.821 795.065 Q 3178.513 794.781 3178.211 794.489 Q 3177.910 794.197 3177.615 793.899 Q 3177.320 793.600 3177.031 793.295 Q 3176.743 792.990 3176.462 792.679 Q 3176.180 792.367 3175.906 792.049 Q 3175.632 791.732 3175.365 791.408 Q 3175.098 791.084 3174.839 790.754 Q 3174.579 790.424 3174.327 790.089 Q 3174.075 789.753 3173.831 789.412 Q 3173.586 789.071 3173.350 788.724 Q 3173.113 788.378 3172.884 788.026 Q 3172.656 787.674 3172.435 787.317 Q 3172.214 786.960 3172.001 786.598 Q 3171.789 786.236 3171.585 785.869 Q 3171.380 785.503 3171.184 785.132 Q 3170.988 784.761 3170.801 784.385 Q 3170.613 784.010 3170.434 783.630 Q 3170.255 783.251 3170.084 782.867 Q 3169.914 782.484 3169.752 782.096 Q 3169.591 781.709 3169.438 781.318 Q 3169.285 780.927 3169.141 780.533 Q 3168.997 780.139 3168.862 779.741 Q 3168.727 779.344 3168.601 778.944 Q 3168.475 778.543 3168.357 778.140 Q 3168.240 777.737 3168.133 777.332 Q 3168.025 776.926 3167.926 776.518 Q 3167.827 776.110 3167.738 775.700 Q 3167.649 775.290 3167.568 774.878 Q 3167.488 774.466 3167.417 774.053 Q 3167.347 773.639 3167.285 773.224 Q 3167.224 772.809 3167.172 772.392 Q 3167.120 771.976 3167.077 771.558 Q 3167.035 771.141 3167.001 770.722 Q 3166.968 770.304 3166.945 769.885 Q 3166.921 769.466 3166.907 769.046 Q 3166.892 768.627 3166.888 768.207 Q 3166.883 767.787 3166.888 767.368 Q 3166.892 766.948 3166.907 766.529 Q 3166.921 766.109 3166.945 765.690 Q 3166.968 765.271 3167.001 764.853 Q 3167.035 764.434 3167.077 764.017 Q 3167.120 763.599 3167.172 763.183 Q 3167.224 762.766 3167.285 762.351 Q 3167.347 761.936 3167.417 761.522 Q 3167.488 761.109 3167.568 760.697 Q 3167.649 760.285 3167.738 759.875 Q 3167.827 759.465 3167.926 759.057 Q 3168.025 758.649 3168.133 758.243 Q 3168.240 757.838 3168.357 757.435 Q 3168.475 757.031 3168.601 756.631 Q 3168.727 756.231 3168.862 755.833 Q 3168.997 755.436 3169.141 755.042 Q 3169.285 754.648 3169.438 754.257 Q 3169.591 753.866 3169.752 753.479 Q 3169.914 753.091 3170.084 752.708 Q 3170.255 752.324 3170.434 751.945 Q 3170.613 751.565 3170.801 751.190 Q 3170.988 750.814 3171.184 750.443 Q 3171.380 750.072 3171.584 749.706 Q 3171.789 749.339 3172.001 748.977 Q 3172.214 748.615 3172.435 748.258 Q 3172.656 747.901 3172.884 747.549 Q 3173.113 747.197 3173.350 746.851 Q 3173.586 746.504 3173.831 746.163 Q 3174.075 745.822 3174.327 745.486 Q 3174.579 745.151 3174.838 744.821 Q 3175.098 744.491 3175.365 744.167 Q 3175.632 743.843 3175.906 743.525 Q 3176.180 743.208 3176.461 742.896 Q 3176.743 742.585 3177.031 742.280 Q 3177.319 741.975 3177.615 741.676 Q 3177.910 741.378 3178.211 741.086 Q 3178.513 740.794 3178.821 740.510 Q 3179.130 740.225 3179.444 739.947 Q 3179.759 739.669 3180.080 739.399 Q 3180.401 739.128 3180.728 738.865 Q 3181.054 738.602 3181.387 738.346 Q 3181.720 738.090 3182.058 737.842 Q 3182.396 737.594 3182.740 737.353 Q 3183.084 737.113 3183.434 736.880 Q 3183.783 736.647 3184.138 736.422 Q 3184.492 736.198 3184.852 735.981 Q 3185.211 735.764 3185.575 735.556 Q 3185.939 735.347 3186.308 735.147 Q 3186.677 734.947 3187.051 734.755 Q 3187.424 734.563 3187.801 734.380 Q 3188.179 734.197 3188.561 734.022 Q 3188.942 733.847 3189.328 733.681 Q 3189.713 733.515 3190.102 733.358 Q 3190.491 733.201 3190.884 733.052 Q 3191.276 732.904 3191.672 732.764 Q 3192.068 732.624 3192.467 732.494 Q 3192.866 732.363 3193.267 732.242 Q 3193.669 732.120 3194.073 732.008 Q 3194.478 731.895 3194.885 731.792 Q 3195.291 731.689 3195.700 731.595 Q 3196.109 731.501 3196.521 731.416 Q 3196.931 731.331 3197.344 731.256 Q 3197.757 731.180 3198.172 731.114 Q 3198.586 731.048 3199.002 730.991 Q 3199.418 730.934 3199.835 730.887 Q 3200.252 730.840 3200.670 730.802 Q 3201.088 730.764 3201.507 730.736 Q 3201.925 730.707 3202.345 730.688 Q 3202.764 730.669 3203.184 730.660 Q 3203.603 730.650 3204.023 730.650 Q 3204.442 730.650 3204.862 730.660 Q 3205.281 730.669 3205.701 730.688 Q 3206.120 730.707 3206.539 730.736 Q 3206.958 730.764 3207.375 730.802 Q 3207.793 730.840 3208.210 730.887 Q 3208.628 730.934 3209.043 730.991 Q 3209.459 731.048 3209.874 731.114 Q 3210.288 731.180 3210.701 731.256 Q 3211.114 731.331 3211.525 731.416 Q 3211.936 731.501 3212.345 731.595 Q 3212.754 731.689 3213.161 731.792 Q 3213.568 731.895 3213.972 732.008 Q 3214.376 732.120 3214.778 732.242 Q 3215.180 732.363 3215.579 732.494 Q 3215.978 732.625 3216.373 732.764 Q 3216.769 732.904 3217.162 733.052 Q 3217.554 733.201 3217.943 733.358 Q 3218.333 733.515 3218.718 733.681 Q 3219.103 733.847 3219.485 734.022 Q 3219.866 734.197 3220.244 734.380 Q 3220.622 734.564 3220.995 734.755 Q 3221.368 734.947 3221.737 735.147 Q 3222.106 735.348 3222.470 735.556 Q 3222.834 735.765 3223.194 735.981 Q 3223.553 736.198 3223.908 736.423 Q 3224.262 736.647 3224.612 736.880 Q 3224.961 737.113 3225.305 737.353 Q 3225.649 737.594 3225.987 737.842 Q 3226.326 738.090 3226.658 738.346 Q 3226.991 738.602 3227.318 738.865 Q 3227.645 739.128 3227.966 739.399 Q 3228.286 739.670 3228.601 739.947 Q 3228.916 740.225 3229.224 740.510 Q 3229.532 740.795 3229.834 741.086 Q 3230.136 741.378 3230.431 741.677 Q 3230.726 741.975 3231.014 742.280 Q 3231.302 742.585 3231.584 742.897 Q 3231.865 743.208 3232.139 743.526 Q 3232.413 743.844 3232.680 744.167 Q 3232.947 744.491 3233.207 744.821 Q 3233.466 745.151 3233.718 745.487 Q 3233.970 745.822 3234.215 746.163 Q 3234.459 746.505 3234.696 746.851 Q 3234.932 747.198 3235.161 747.550 Q 3235.390 747.902 3235.611 748.259 Q 3235.831 748.616 3236.044 748.978 Q 3236.256 749.339 3236.461 749.706 Q 3236.665 750.073 3236.861 750.444 Q 3237.057 750.815 3237.245 751.190 Q 3237.432 751.566 3237.611 751.945 Q 3237.790 752.325 3237.961 752.708 Q 3238.131 753.092 3238.293 753.479 Q 3238.455 753.867 3238.607 754.258 Q 3238.760 754.648 3238.904 755.043 Q 3239.048 755.437 3239.184 755.834 Q 3239.319 756.232 3239.445 756.632 Q 3239.571 757.032 3239.688 757.435 Q 3239.805 757.838 3239.913 758.244 Q 3240.021 758.649 3240.119 759.057 Q 3240.218 759.465 3240.307 759.875 Q 3240.396 760.285 3240.477 760.697 Q 3240.557 761.109 3240.627 761.523 Q 3240.698 761.937 3240.760 762.352 Q 3240.821 762.767 3240.873 763.184 Q 3240.925 763.600 3240.968 764.018 Q 3241.010 764.435 3241.044 764.854 Q 3241.077 765.272 3241.101 765.691 Q 3241.124 766.110 3241.138 766.529 Q 3241.153 766.949 3241.157 767.368 Z"></path>
    <path id="STROKE_649bf1e8-8538-44d7-affc-06c7656b5199" opacity="1.000" fill="none" stroke="#d75341" stroke-width="6.000" stroke-opacity="1.000" stroke-linecap="round" stroke-linejoin="round" d="M 3200.591 811.173 L 3183.133 939.257 "></path>
    <path id="STROKE_97afce09-9566-45dc-b2f2-3af9c38d1219" opacity="1.000" fill="none" stroke="#d75341" stroke-width="6.000" stroke-opacity="1.000" stroke-linecap="round" stroke-linejoin="round" d="M 3168.393 913.621 Q 3168.788 914.541 3165.224 911.496 Q 3165.822 911.416 3168.135 919.151 Q 3170.448 926.886 3172.371 931.362 Q 3174.293 935.839 3175.652 937.872 Q 3177.011 939.906 3178.048 940.814 Q 3179.085 941.723 3180.332 941.971 Q 3181.579 942.219 3182.991 942.227 Q 3184.403 942.236 3185.420 941.901 Q 3186.438 941.567 3186.258 941.513 Q 3186.079 941.459 3186.837 941.302 Q 3187.595 941.145 3190.222 938.259 Q 3192.849 935.373 3195.103 933.617 Q 3197.356 931.861 3205.698 928.546 Q 3214.040 925.230 3217.417 923.433 "></path>
  </g>
  <g id="文本" opacity="1.000">
    <g id="LABEL_1d641411-d758-46ca-b46b-650e5bb465a7" opacity="1.000" transform="matrix(2.000000 0.000000 0.000000 2.000000 754.333496 986.609558)">
      <text x="0" y="0" text-anchor="middle" alignment-baseline="mathematical" font-size="24.000" font-weight="lighter" fill="#fc6932" font-family="'Helvetica Neue', Helvetica, Arial, sans-serif">
        <tspan x="0" dy="0.000em">起点坐标</tspan>
      </text>
    </g>
    <g id="LABEL_c1afe79c-03d0-4854-8221-036c24ca3fd4" opacity="1.000" transform="matrix(2.000000 0.000000 0.000000 2.000000 -398.979370 200.359558)">
      <text x="0" y="0" text-anchor="middle" alignment-baseline="mathematical" font-size="24.000" font-weight="lighter" fill="#fc6932" font-family="'Helvetica Neue', Helvetica, Arial, sans-serif">
        <tspan x="0" dy="0.000em">终点坐标</tspan>
      </text>
    </g>
    <g id="LABEL_f5962f41-5d8d-4a36-90b1-2ef7364b46a2" opacity="1.000" transform="matrix(2.000000 0.000000 0.000000 2.000000 3186.442871 975.183289)">
      <text x="0" y="0" text-anchor="middle" alignment-baseline="mathematical" font-size="24.000" font-weight="lighter" fill="#fc6932" font-family="'Helvetica Neue', Helvetica, Arial, sans-serif">
        <tspan x="0" dy="0.000em">目标位置坐标</tspan>
      </text>
    </g>
    <path id="STROKE_5e5d2d7d-1516-4208-a4b5-7f414a4da172" opacity="1.000" fill="none" stroke="#d75341" stroke-width="8.100" stroke-opacity="1.000" stroke-linecap="round" stroke-linejoin="round" d="M 2077.902 679.263 L 932.236 688.435 "></path>
    <path id="STROKE_860535b9-55db-4454-9195-3adf0d6245b6" opacity="1.000" fill="none" stroke="#d75341" stroke-width="6.000" stroke-opacity="1.000" stroke-linecap="round" stroke-linejoin="round" d="M 2078.841 681.494 L 1876.699 852.413 "></path>
    <path id="STROKE_2dc4ffb4-7a75-41df-b842-48b84075e647" opacity="1.000" fill="none" stroke="#d75341" stroke-width="6.000" stroke-opacity="1.000" stroke-linecap="round" stroke-linejoin="round" d="M 2079.441 674.553 L 1877.299 503.634 "></path>
    <g id="LABEL_2d797c6b-d5d0-4b0f-a2f9-ce4554f7543a" opacity="1.000" transform="matrix(9.049442 0.000002 -0.000002 7.303268 1473.078491 532.544495)">
      <text x="0" y="0" text-anchor="middle" alignment-baseline="mathematical" font-size="24.000" font-weight="lighter" fill="#000000" font-family="'Helvetica Neue', Helvetica, Arial, sans-serif">
        <tspan x="0" dy="0.000em">Clone</tspan>
      </text>
    </g>
  </g>
</svg>